<svg width="110" height="99" viewBox="0 0 110 99" fill="none" xmlns="http://www.w3.org/2000/svg">
<path fill-rule="evenodd" clip-rule="evenodd" d="M65.2123 6.5694C60.6733 -1.29235 49.3259 -1.29233 44.7869 6.56941L1.92782 80.8035C-2.61116 88.6652 3.06259 98.4924 12.1405 98.4924H97.8587C106.937 98.4924 112.61 88.6652 108.071 80.8035L65.2123 6.5694ZM58.4002 64.4786L59.3434 39.5826H51.0779L52.0211 64.4786H58.4002ZM52.0459 69.3933C51.2516 70.1545 50.8545 71.0894 50.8545 72.1981C50.8545 73.3233 51.2516 74.2666 52.0459 75.0278C52.8402 75.7724 53.891 76.1447 55.1982 76.1447C56.489 76.1447 57.5232 75.7724 58.3009 75.0278C59.0952 74.2666 59.4924 73.3233 59.4924 72.1981C59.4924 71.0894 59.0952 70.1545 58.3009 69.3933C57.5232 68.6321 56.489 68.2515 55.1982 68.2515C53.891 68.2515 52.8402 68.6321 52.0459 69.3933Z" fill="#CBD5E1"/>
</svg>
